# xmcd
#
# Track frame offsets:
#	150
#	21515
#	38632
#	67207
#	89330
#	110575
#	138647
#
# Disc length: 2239 seconds
#
# Revision: 1
# Processed by: cddbd v1.5.2PL0 Copyright (c) Steve Scherf et al.
# Submitted via: EasyCDDAExtractor 11.5.0.1
#
DISCID=6508bd07
DTITLE=A.S.A.P. - Kiss Me First [CD Single)
DYEAR=1995
DGENRE=R&B
TTITLE0=Kiss Me First (Cake Mix)
TTITLE1=Kiss Me First (Cake Mix No Rap)
TTITLE2=Kiss Me First (Street Mix)
TTITLE3=Kiss Me First (New Jack Swing)
TTITLE4=Kiss Me First (Smooth Sound)
TTITLE5=Kiss Me First (Smooth Instrumental)
TTITLE6=Kiss Me First (Cake Instrumental)
EXTD=
EXTT0=
EXTT1=
EXTT2=
EXTT3=
EXTT4=
EXTT5=
EXTT6=
PLAYORDER=
